# xmcd
#
# Track frame offsets: 
#        150
#        19035
#        33082
#        56685
#        76892
#        94430
#        115092
#        142365
#        168325
#        196755
#        215197
#
# Disc length: 3187 seconds
#
# Revision: 1
# Processed by: cddbd v1.5.2PL0 Copyright (c) Steve Scherf et al.
# Submitted via: ExactAudioCopy v0.99pb4
#
DISCID=980c710b
DTITLE=Various Artist - SMIRNOFF ICE presents EXCLUSIVE JAZZ GROOVE Navigated
DTITLE=by LAVA
DYEAR=2005
DGENRE=Jazz
TTITLE0=Lava - Dipp
TTITLE1=Nouvelle Vague - Just Can't Get Enough
TTITLE2=The Dining Rooms - Tunnel (Gone Remix)
TTITLE3=Marco Di Marco Trio - Par Avion
TTITLE4=Nicola Conte - Jazz Pour Dadine
TTITLE5=Lava Feat. Dawn Moore - Never Giving Up Our Love
TTITLE6=Paolo Fedreghini And Marco Bianchi - Theme Of Solitary Notes
TTITLE7=Lava - Misto (10th Anniversary Remaster Version)
TTITLE8=Jerome Richardson - Way In Blues (Nicola Conte Remix)
TTITLE9=Private Kitchen - Our Impression
TTITLE10=Gerardo Frisina - Beyond The Moon (Lava-step Over Afroground 
TTITLE10=Remix)
EXTD=YEAR: 2005
EXTT0=
EXTT1=
EXTT2=
EXTT3=
EXTT4=
EXTT5=
EXTT6=
EXTT7=
EXTT8=
EXTT9=
EXTT10=
PLAYORDER=
